<svg viewBox="0 0 140 36.35" xmlns="http://www.w3.org/2000/svg" xmlns:xlink="http://www.w3.org/1999/xlink" width="140.000000" height="36.349976" fill="none" customFrame="#000000">
	<defs>
		<g id="pixso_custom_effect_0">
			<effect visibility="visible" effectType="gaussianBlur" stdDeviation="3" />
		</g>
		<filter id="filter_0" width="68.905518" height="27.066040" x="34.000122" y="0.000000" filterUnits="userSpaceOnUse" customEffect="url(#pixso_custom_effect_0)" color-interpolation-filters="sRGB">
			<feFlood flood-opacity="0" result="BackgroundImageFix" />
			<feBlend result="shape" in="SourceGraphic" in2="BackgroundImageFix" mode="normal" />
			<feGaussianBlur stdDeviation="1" result="effect_layerBlur_1" />
		</filter>
		<linearGradient id="paint_linear_0" x1="38.3949509" x2="83.1626282" y1="3.10009766" y2="3.10009766" gradientUnits="userSpaceOnUse">
			<stop stop-color="rgb(255,255,255)" offset="0" stop-opacity="0" />
			<stop stop-color="rgb(255,255,255)" offset="0.264748096" stop-opacity="1" />
			<stop stop-color="rgb(255,255,255)" offset="1" stop-opacity="0" />
		</linearGradient>
		<linearGradient id="paint_linear_1" x1="55.1251755" x2="99.8928528" y1="23.9660645" y2="23.9660645" gradientUnits="userSpaceOnUse">
			<stop stop-color="rgb(255,255,255)" offset="0" stop-opacity="0" />
			<stop stop-color="rgb(255,255,255)" offset="0.264748096" stop-opacity="1" />
			<stop stop-color="rgb(255,255,255)" offset="1" stop-opacity="0" />
		</linearGradient>
		<linearGradient id="paint_linear_2" x1="68.5" x2="68.5" y1="3.09997559" y2="24.0999756" gradientUnits="userSpaceOnUse">
			<stop stop-color="rgb(196,196,196)" offset="0" stop-opacity="1" />
			<stop stop-color="rgb(196,196,196)" offset="0.13905324" stop-opacity="0" />
			<stop stop-color="rgb(196,196,196)" offset="0.869611502" stop-opacity="0.129411772" />
			<stop stop-color="rgb(196,196,196)" offset="1" stop-opacity="1" />
		</linearGradient>
		<g id="pixso_custom_effect_1">
			<effect visibility="visible" effectType="gaussianBlur" stdDeviation="10" />
		</g>
		<filter id="filter_1" width="72.879272" height="26.107056" x="32.682495" y="0.752075" filterUnits="userSpaceOnUse" customEffect="url(#pixso_custom_effect_1)" color-interpolation-filters="sRGB">
			<feFlood flood-opacity="0" result="BackgroundImageFix" />
			<feBlend result="shape" in="SourceGraphic" in2="BackgroundImageFix" mode="normal" />
			<feGaussianBlur stdDeviation="3.33333325" result="effect_layerBlur_1" />
		</filter>
		<g id="pixso_custom_effect_2">
			<effect visibility="visible" effectType="gaussianBlur" stdDeviation="6" />
		</g>
		<filter id="filter_2" width="64.869141" height="13.107056" x="36.687622" y="7.252075" filterUnits="userSpaceOnUse" customEffect="url(#pixso_custom_effect_2)" color-interpolation-filters="sRGB">
			<feFlood flood-opacity="0" result="BackgroundImageFix" />
			<feBlend result="shape" in="SourceGraphic" in2="BackgroundImageFix" mode="normal" />
			<feGaussianBlur stdDeviation="2" result="effect_layerBlur_1" />
		</filter>
	</defs>
	<g id="组合 98">
		<g id="组合 74">
			<path id="矢量 78" d="M13.3539 10.1887L37.7351 36.1L98.6839 36.1L126.598 10.1887" opacity="0.199999988" stroke="rgb(255,255,255)" stroke-width="0.500000" />
			<path id="矩形 68" d="M0 10.1L13.4738 10.1L17.3235 14.2079L3.84967 14.2079L0 10.1Z" fill="rgb(255,255,255)" fill-rule="evenodd" />
			<path id="矩形 71" d="M126.535 10.1L140 10.1L135.509 14.2079L122.044 14.2079L126.535 10.1Z" fill="rgb(255,255,255)" fill-rule="evenodd" />
			<path id="矩形 72" d="M120.997 15.1914L134.462 15.1914L129.97 19.2993L116.506 19.2993L120.997 15.1914Z" opacity="0.199999988" fill="rgb(255,255,255)" fill-rule="evenodd" />
			<path id="矩形 73" d="M115.467 20.2828L128.932 20.2828L124.441 24.3907L110.976 24.3907L115.467 20.2828Z" opacity="0.199999988" fill="rgb(255,255,255)" fill-rule="evenodd" />
			<path id="矩形 69" d="M4.97241 15.3513L18.4463 15.3513L22.2959 19.4592L8.82208 19.4592L4.97241 15.3513Z" opacity="0.199999988" fill="rgb(255,255,255)" fill-rule="evenodd" />
			<path id="矩形 70" d="M9.95728 20.6027L23.4311 20.6027L27.2808 24.7105L13.8069 24.7105L9.95728 20.6027Z" opacity="0.199999988" fill="rgb(255,255,255)" fill-rule="evenodd" />
		</g>
		<g id="组合 73">
			<g filter="url(#filter_0)">
				<path id="矢量 82" d="M37.0002 3.09998L45.5114 3.09998L91.1927 3.09998L99.9058 3.09998M37.0002 23.966L99.9058 23.966" stroke="rgb(255,255,255)" stroke-width="0.200000" />
			</g>
			<path id="矢量 80" d="M37.0002 3.09998L45.5114 3.09998L91.1927 3.09998L99.9058 3.09998" opacity="0.5" stroke="rgb(255,255,255)" stroke-width="0.100000" />
			<path id="矢量 80" d="M37.4813 2.6001L83.1626 2.6001L83.1626 3.6001L37.4813 3.6001L37.4813 2.6001Z" fill="url(#paint_linear_0)" fill-rule="nonzero" />
			<path id="矢量 80" d="M54.2115 23.4661L99.8928 23.4661L99.8928 24.4661L54.2115 24.4661L54.2115 23.4661Z" fill="url(#paint_linear_1)" fill-rule="nonzero" />
			<path id="矢量 80" d="M45.5112 3.09998L37 3.09998L37 23.9341C37 23.9596 78.9435 24.1101 100 24.0994L99.9056 3.09998L91.1925 3.09998L45.5112 3.09998Z" opacity="0.199999988" fill="url(#paint_linear_2)" fill-rule="evenodd" />
			<path id="矢量 81" d="M37.0002 23.9661L99.9058 23.9661" opacity="0.5" stroke="rgb(255,255,255)" stroke-width="0.100000" />
			<g opacity="0.300000012" filter="url(#filter_1)">
				<path id="矢量 83" d="M0 0L52.8672 0" stroke="rgb(0,255,11)" stroke-width="6.000000" transform="matrix(0.999998,-0.00202495,0.00202495,0.999998,42.6886,13.8591)" />
			</g>
			<g filter="url(#filter_2)">
				<path id="矢量 83" d="M0 0L52.8672 0" stroke="rgb(0,255,11)" stroke-width="1.000000" transform="matrix(0.999998,-0.00202495,0.00202495,0.999998,42.6886,13.8591)" />
			</g>
		</g>
	</g>
</svg>
