<svg viewBox="0 0 99.0009 8" xmlns="http://www.w3.org/2000/svg" xmlns:xlink="http://www.w3.org/1999/xlink" width="99.000854" height="8.000000" fill="none" customFrame="#000000">
	<g id="组合 100">
		<path id="矩形 569" d="M0 0L1 0L0.999992 40L0 40L0 0Z" fill="rgb(59,228,61)" fill-rule="evenodd" transform="matrix(-1.01378e-07,1,-1,-1.01378e-07,99.0009,7)" />
		<g id="组合 86">
			<g id="组合 33">
				<path id="矩形 3" d="M37.0187 0L6.49994 0L0 7.99999L28.7588 8L37.0187 0Z" fill="rgb(59,228,61)" fill-rule="evenodd" transform="matrix(-1,0,0,1,60.4989,0)" />
				<path id="矩形 5" d="M12.6073 0L8.25993 0L0 8L4.34734 8L12.6073 0Z" fill="rgb(59,228,61)" fill-rule="evenodd" transform="matrix(-1,0,0,1,28.2577,0)" />
				<path id="矩形 6" d="M12.6073 0L8.25993 0L0 8L4.34734 8L12.6073 0Z" fill="rgb(59,228,61)" fill-rule="evenodd" transform="matrix(-1,0,0,1,20.4325,0)" />
				<path id="矩形 7" d="M12.6073 0L8.25993 0L0 8L4.34734 8L12.6073 0Z" fill="rgb(59,228,61)" fill-rule="evenodd" transform="matrix(-1,0,0,1,12.6073,0)" />
			</g>
		</g>
	</g>
</svg>
