<svg viewBox="0 0 199 6" xmlns="http://www.w3.org/2000/svg" xmlns:xlink="http://www.w3.org/1999/xlink" width="199.000000" height="6.000000" fill="none" customFrame="#000000">
	<g id="组合 1">
		<path id="矩形 1" d="M2.22222 3L40 3L37.7778 6L0 6L2.22222 3Z" fill="rgb(255,255,255)" fill-rule="evenodd" />
		<path id="矩形 4" d="M61.2222 3L199 3L196.778 6L59 6L61.2222 3Z" opacity="0.5" fill="rgb(255,255,255)" fill-rule="evenodd" />
		<path id="矩形 3" d="M27.4445 0L25.2222 0L21 6L23.2222 6L27.4445 0Z" fill="rgb(255,255,255)" fill-rule="evenodd" />
		<path id="矩形 9" d="M6.44446 0L4.22223 0L0 6L2.22223 6L6.44446 0Z" fill="rgb(255,255,255)" fill-rule="evenodd" />
		<path id="矩形 5" d="M31.4445 0L29.2222 0L25 6L27.2222 6L31.4445 0Z" fill="rgb(255,255,255)" fill-rule="evenodd" />
		<path id="矩形 6" d="M35.4445 0L33.2222 0L29 6L31.2222 6L35.4445 0Z" fill="rgb(255,255,255)" fill-rule="evenodd" />
		<path id="矩形 7" d="M39.4445 0L37.2222 0L33 6L35.2222 6L39.4445 0Z" fill="rgb(255,255,255)" fill-rule="evenodd" />
		<path id="矩形 8" d="M43.4445 0L41.2222 0L37 6L39.2222 6L43.4445 0Z" fill="rgb(255,255,255)" fill-rule="evenodd" />
	</g>
</svg>
