<svg viewBox="0 0 206.5 54" xmlns="http://www.w3.org/2000/svg" xmlns:xlink="http://www.w3.org/1999/xlink" width="206.499756" height="54.000000" fill="none" customFrame="#000000">
	<defs>
		<linearGradient id="paint_linear_3" x1="133.999985" x2="48" y1="56.9999847" y2="-25.0000076" gradientUnits="userSpaceOnUse">
			<stop stop-color="rgb(178,255,140)" offset="0" stop-opacity="1" />
			<stop stop-color="rgb(197,255,168)" offset="1" stop-opacity="0" />
		</linearGradient>
	</defs>
	<path id="矢量 6" d="M-1.43051e-06 6L0.999999 6L1 3.5L69.4114 3.50003L139.91 28.9993L203.5 29.4961L203.5 49.046C203.02 49.1377 202.598 49.3664 202.232 49.7322C201.744 50.2204 201.5 50.8096 201.5 51.5C201.5 52.1903 201.744 52.7796 202.232 53.2678C202.72 53.7559 203.309 54 204 54C204.69 54 205.279 53.7559 205.767 53.2678C206.256 52.7796 206.5 52.1903 206.5 51.5C206.5 50.8096 206.256 50.2204 205.767 49.7322C205.402 49.3664 204.979 49.1377 204.5 49.046L204.5 28.5039L140.089 28.0007L69.5867 2.50003L1 2.5L1 2.38419e-07L-4.76837e-07 0L-1.43051e-06 6ZM204.5 50.081C204.344 50.027 204.178 50 204 50C203.822 50 203.655 50.027 203.5 50.081C203.293 50.1527 203.106 50.2722 202.939 50.4393C202.646 50.7322 202.5 51.0858 202.5 51.5C202.5 51.9142 202.646 52.2678 202.939 52.5607C203.232 52.8535 203.585 53 204 53C204.414 53 204.767 52.8535 205.06 52.5607C205.353 52.2678 205.5 51.9142 205.5 51.5C205.5 51.0858 205.353 50.7322 205.06 50.4393C204.893 50.2722 204.706 50.1528 204.5 50.081Z" fill="url(#paint_linear_3)" fill-rule="evenodd" />
</svg>
