<?xml version="1.0" encoding="utf-8"?>
<!-- Generator: Adobe Illustrator 25.2.0, SVG Export Plug-In . SVG Version: 6.00 Build 0)  -->
<svg version="1.1" xmlns="http://www.w3.org/2000/svg" xmlns:xlink="http://www.w3.org/1999/xlink" x="0px" y="0px"
	 viewBox="0 0 15.4 12" style="enable-background:new 0 0 15.4 12;" xml:space="preserve">
<style type="text/css">
	.st0{fill:#DD9920;}
</style>
<path class="st0" d="M4.5,0H2.2C2,0,1.8,0.1,1.6,0.3C1.5,0.5,1.4,0.8,1.4,1v0.5h3.1C4.5,1.5,4.5,0,4.5,0z M14.8,3.5
	c0.1-0.1,0.2-0.2,0.3-0.2c0.1-0.1,0.2-0.1,0.3-0.2c0.1-0.1,0.1-0.2,0.1-0.4c0-0.1,0-0.3-0.1-0.4C15.2,2.2,15.1,2.1,15,2
	c-0.1-0.1-0.2-0.1-0.2-0.2c0-0.1,0-0.2,0-0.3c0-0.1,0-0.2,0.1-0.3c0-0.1,0.1-0.2,0.2-0.2c0.1-0.1,0.1-0.1,0.2-0.2c0-0.1,0-0.2,0-0.3
	c0-0.1-0.1-0.2-0.1-0.2C15.1,0,15,0,14.9,0H5.5v1.5h8c0.2,0,0.3,0,0.4,0.2C14,1.8,14.1,1.9,14.1,2c0,0.2,0.1,0.3,0,0.5
	c0,0.2-0.1,0.4-0.3,0.5c-0.1,0.1-0.2,0.2-0.2,0.3c0,0.1-0.1,0.2-0.1,0.4c0,0.1,0,0.3,0.1,0.4c0.1,0.1,0.1,0.2,0.2,0.3
	c0.1,0.1,0.2,0.1,0.2,0.2c0,0.1,0.1,0.2,0.1,0.3c0,0.1,0,0.2-0.1,0.3c0,0.1-0.1,0.2-0.2,0.2c-0.1,0.1-0.2,0.2-0.2,0.3
	c0,0.1-0.1,0.2-0.1,0.4c0,0.1,0,0.2,0.1,0.3c0.1,0.1,0.1,0.2,0.2,0.2c0.1,0,0.1,0.1,0.2,0.2c0,0.1,0.1,0.2,0.1,0.3
	c0,0.1,0,0.2-0.1,0.3c0,0.1-0.1,0.2-0.2,0.2c-0.1,0-0.1,0.1-0.1,0.2c0,0.1-0.1,0.2-0.1,0.3c0,0.1,0,0.2,0.1,0.3
	c0,0.1,0.1,0.2,0.2,0.2c0.1,0.1,0.2,0.2,0.3,0.3c0.1,0.1,0.1,0.3,0,0.5c0,0-0.1,0.1-0.1,0.1c0,0-0.1,0.1-0.1,0.1c0,0,0,0.1,0,0.1
	c0,0,0,0,0.1,0H15c0.1,0,0.2,0,0.2-0.1c0-0.1,0.1-0.2,0.1-0.3c0-0.1,0-0.2-0.1-0.3c0-0.1-0.1-0.2-0.1-0.2c-0.2-0.2-0.3-0.4-0.3-0.6
	s0.1-0.4,0.3-0.5c0.1-0.1,0.1-0.2,0.1-0.2c0-0.1,0-0.2,0-0.4c0-0.1,0-0.3-0.1-0.4c0-0.1-0.1-0.2-0.2-0.2c-0.1,0-0.2-0.1-0.2-0.2
	c0-0.1-0.1-0.2-0.1-0.3c0-0.1,0-0.2,0.1-0.3c0-0.1,0.1-0.1,0.2-0.2c0.1,0,0.2-0.1,0.2-0.2c0.1-0.2,0.1-0.5,0-0.7
	c0-0.1-0.1-0.2-0.2-0.3c-0.2-0.1-0.3-0.4-0.3-0.6C14.7,3.7,14.7,3.6,14.8,3.5L14.8,3.5z M0.2,2.6C0.1,2.8,0,3,0,3.4v2
	c0,0.1,0,0.2,0.1,0.3c0.1,0.1,0.1,0.1,0.3,0.1c0.2,0,0.3,0.1,0.4,0.3C0.9,6.3,1,6.5,1,6.8C1,7,1,7.1,0.9,7.3c0,0.1-0.1,0.2-0.2,0.3
	C0.7,7.7,0.6,7.7,0.5,7.8c-0.1,0-0.1,0.1-0.2,0.1C0.2,7.9,0.1,7.9,0.1,8C0,8.1,0,8.2,0,8.3v2.8c0,0.4,0.1,0.6,0.2,0.7
	C0.3,11.9,0.5,12,0.8,12c0.1,0,0.3,0,0.5,0c0.2,0,0.5,0,0.7,0H3V2.4H0.8C0.5,2.4,0.3,2.5,0.2,2.6L0.2,2.6z M8.2,7.2
	C8,7.4,7.9,7.6,7.8,7.7h1.3C9,7.6,8.9,7.4,8.8,7.3L8.2,7.2L8.2,7.2z"/>
<path class="st0" d="M12.8,7.7C12.9,7.6,13,7.5,13,7.4c0.1-0.2,0.1-0.5,0-0.7c-0.1-0.1-0.1-0.2-0.2-0.2c-0.1,0-0.2-0.1-0.3-0.2
	c-0.1-0.1-0.1-0.2-0.1-0.3c0-0.1,0-0.2,0.1-0.3c0.1-0.1,0.2-0.2,0.3-0.2c0.1,0,0.2-0.1,0.2-0.2c0-0.1,0.1-0.2,0.1-0.3
	c0-0.1,0-0.2-0.1-0.3c-0.1-0.1-0.1-0.2-0.2-0.2c-0.2-0.1-0.4-0.3-0.4-0.5c0-0.1,0-0.2,0.1-0.3c0.1-0.1,0.1-0.2,0.2-0.2
	c0.1,0,0.2-0.1,0.2-0.2c0.1-0.2,0.1-0.4,0-0.6c0-0.1-0.1-0.1-0.2-0.1H3.9V12h8.7c0.1,0,0.2,0,0.2-0.1c0.1-0.1,0.1-0.2,0.1-0.3
	c0-0.1,0-0.2,0-0.3c0-0.1-0.1-0.2-0.2-0.2c-0.1-0.1-0.2-0.2-0.3-0.3c-0.1-0.2-0.1-0.5,0-0.7c0.1-0.1,0.2-0.2,0.3-0.2
	c0.1,0,0.2-0.1,0.2-0.2c0-0.1,0.1-0.2,0.1-0.3c0-0.1,0-0.2-0.1-0.3c-0.1-0.1-0.1-0.2-0.2-0.2c-0.2-0.1-0.3-0.3-0.3-0.5
	C12.4,8,12.6,7.8,12.8,7.7z"/>
<path class="st0" d="M10.2,8.5C10,8.4,9.9,8.3,9.7,8.3L9.7,8.9C9.6,9.4,9.3,9.6,8.9,9.6c-0.3,0-0.5,0-0.7,0C8.1,9.5,8.1,9.3,8,9
	l0.7,0c0.2,0,0.4-0.1,0.4-0.3l0-0.5H8C7.9,8.6,7.8,8.9,7.6,9.1C7.3,9.4,7,9.6,6.5,9.8C6.4,9.6,6.3,9.4,6.2,9.2
	c0.4-0.1,0.8-0.3,1-0.5c0.1-0.1,0.2-0.3,0.3-0.4H7C6.9,8.3,6.7,8.4,6.6,8.5C6.5,8.3,6.4,8.1,6.2,7.9c0.5-0.2,0.8-0.4,1.1-0.7H6.2
	V6.7h1.6c0-0.1,0.1-0.2,0.1-0.4H6.4V5.7h0.7C6.9,5.6,6.8,5.4,6.6,5.2L7,4.9c0.2,0.2,0.4,0.4,0.6,0.6L7.3,5.7H8C8,5.5,8,5.2,8,4.9
	l0.6,0c0,0.3,0,0.6-0.1,0.9h0.6L9,5.6c0.2-0.2,0.4-0.5,0.5-0.7l0.5,0.3C9.8,5.4,9.7,5.6,9.5,5.7h0.7v0.6H8.5c0,0.1-0.1,0.3-0.1,0.4
	h2v0.6h-1c0.3,0.3,0.7,0.5,1.1,0.6C10.4,8.1,10.3,8.3,10.2,8.5L10.2,8.5z"/>
</svg>
