<svg class="icon" style="vertical-align: bottom;" viewBox="0 0 1300 1024" version="1.1" xmlns="http://www.w3.org/2000/svg" p-id="4324" width="16" height="16"><path d="M1126.4 512c0-113.152-91.648-204.8-204.8-204.8-61.952 0-115.2 29.184-153.6 82.432-38.4-53.248-91.136-82.432-153.6-82.432-113.152 0-204.8 91.648-204.8 204.8s91.648 204.8 204.8 204.8c62.464 0 115.2-29.184 153.6-82.432 38.4 53.248 91.648 82.432 153.6 82.432 113.152 0 204.8-91.648 204.8-204.8m102.4-307.2v614.4c0 84.992-68.608 153.6-153.6 153.6H460.8c-84.992 0-153.6-68.608-153.6-153.6V204.8c0-84.992 68.608-153.6 153.6-153.6h614.4c84.992 0 153.6 68.608 153.6 153.6M614.4 409.6c-56.32 0-102.4 46.08-102.4 102.4s46.08 102.4 102.4 102.4c55.296 0 84.992-52.736 100.352-102.4-15.36-49.664-45.056-102.4-100.352-102.4m409.6 102.4c0 56.32-46.08 102.4-102.4 102.4-55.296 0-84.992-52.736-100.352-102.4 15.36-49.664 45.056-102.4 100.352-102.4 56.32 0 102.4 46.08 102.4 102.4" fill="#20a53a" p-id="4325"></path></svg>