<?xml version="1.0" standalone="no"?><!DOCTYPE svg PUBLIC "-//W3C//DTD SVG 1.1//EN" "http://www.w3.org/Graphics/SVG/1.1/DTD/svg11.dtd"><svg class="icon" width="200px" height="200.00px" viewBox="0 0 1024 1024" version="1.1" xmlns="http://www.w3.org/2000/svg"><path fill="#666666" d="M896.128 378.752a29.888 29.888 0 0 1-27.52-18.304 388.224 388.224 0 0 0-715.392 0 29.888 29.888 0 1 1-54.976-23.296 448 448 0 0 1 825.6 0 29.888 29.888 0 0 1-27.52 41.6z"  /><path fill="#666666" d="M510.912 959.168a448.576 448.576 0 0 1-412.672-274.176 29.888 29.888 0 1 1 54.976-23.296 388.224 388.224 0 0 0 715.392 0 29.888 29.888 0 1 1 54.976 23.296 447.424 447.424 0 0 1-412.736 274.176z"  /><path fill="#666666" d="M92.992 393.472a29.888 29.888 0 0 1-29.952-29.952V180.224a29.952 29.952 0 0 1 59.84 0V363.52a29.888 29.888 0 0 1-29.888 29.952z"  /><path fill="#666666" d="M276.352 393.472H93.056a29.952 29.952 0 0 1 0-59.84h183.296a29.952 29.952 0 0 1 0 59.84z"  /><path fill="#666666" d="M929.216 864.768a29.952 29.952 0 0 1-29.952-29.952V651.52a29.952 29.952 0 1 1 59.84 0v183.296a29.952 29.952 0 0 1-29.888 29.952z"  /><path fill="#666666" d="M929.216 681.6h-183.296a29.952 29.952 0 1 1 0-59.84h183.296a29.952 29.952 0 0 1 0 59.84z"  /></svg>