<?xml version="1.0" standalone="no"?><!DOCTYPE svg PUBLIC "-//W3C//DTD SVG 1.1//EN" "http://www.w3.org/Graphics/SVG/1.1/DTD/svg11.dtd"><svg class="icon" width="200px" height="200.00px" viewBox="0 0 1024 1024" version="1.1" xmlns="http://www.w3.org/2000/svg"><path fill="#fc732f" d="M512 913.92c-228.352 0-414.208-185.856-414.208-414.208S283.648 86.016 512 86.016c228.352 0 414.208 185.856 414.208 414.208s-185.856 413.696-414.208 413.696z m0-776.704c-200.192 0-363.008 162.816-363.008 363.008 0 200.192 162.816 363.008 363.008 363.008s363.008-162.816 363.008-363.008c0-200.192-162.816-363.008-363.008-363.008z"  /><path fill="#fc732f" d="M512.512 672.256h-1.536c-13.824 0-24.576-11.264-24.576-24.576V256.512c0-13.824 11.264-24.576 24.576-24.576h1.536c13.824 0 24.576 11.264 24.576 24.576v391.168c0.512 13.824-10.752 24.576-24.576 24.576z"  /><path fill="#fc732f" d="M512 749.568m-25.6 0a25.6 25.6 0 1 0 51.2 0 25.6 25.6 0 1 0-51.2 0Z"  /></svg>